<mxfile host="65bd71144e">
    <diagram id="GcNNM0jPAdqKbaNoHngJ" name="Página-1">
        <mxGraphModel dx="621" dy="454" grid="1" gridSize="10" guides="1" tooltips="1" connect="1" arrows="1" fold="1" page="1" pageScale="1" pageWidth="827" pageHeight="1169" math="0" shadow="0">
            <root>
                <mxCell id="0"/>
                <mxCell id="1" parent="0"/>
                <mxCell id="10" style="edgeStyle=none;html=1;entryX=0;entryY=0.5;entryDx=0;entryDy=0;" parent="1" source="2" target="3" edge="1">
                    <mxGeometry relative="1" as="geometry"/>
                </mxCell>
                <mxCell id="2" value="Main" style="ellipse;whiteSpace=wrap;html=1;aspect=fixed;" parent="1" vertex="1">
                    <mxGeometry x="50" y="345" width="80" height="80" as="geometry"/>
                </mxCell>
                <mxCell id="3" value="Commit 1&lt;div&gt;1.0&lt;/div&gt;" style="ellipse;whiteSpace=wrap;html=1;aspect=fixed;" parent="1" vertex="1">
                    <mxGeometry x="170" y="345" width="80" height="80" as="geometry"/>
                </mxCell>
            </root>
        </mxGraphModel>
    </diagram>
    <diagram id="3fcM3I4ZBfxuZG_P3Pf4" name="Página-2">
        <mxGraphModel dx="1086" dy="795" grid="1" gridSize="10" guides="1" tooltips="1" connect="1" arrows="1" fold="1" page="1" pageScale="1" pageWidth="827" pageHeight="1169" math="0" shadow="0">
            <root>
                <mxCell id="0"/>
                <mxCell id="1" parent="0"/>
                <mxCell id="LqMnQKDVY3w8fZrZsZry-1" style="edgeStyle=none;html=1;entryX=0;entryY=0.5;entryDx=0;entryDy=0;" parent="1" source="LqMnQKDVY3w8fZrZsZry-2" target="LqMnQKDVY3w8fZrZsZry-5" edge="1">
                    <mxGeometry relative="1" as="geometry"/>
                </mxCell>
                <mxCell id="LqMnQKDVY3w8fZrZsZry-2" value="Main" style="ellipse;whiteSpace=wrap;html=1;aspect=fixed;" parent="1" vertex="1">
                    <mxGeometry x="50" y="345" width="80" height="80" as="geometry"/>
                </mxCell>
                <mxCell id="LqMnQKDVY3w8fZrZsZry-3" value="" style="edgeStyle=none;html=1;" parent="1" source="LqMnQKDVY3w8fZrZsZry-5" target="LqMnQKDVY3w8fZrZsZry-7" edge="1">
                    <mxGeometry relative="1" as="geometry"/>
                </mxCell>
                <mxCell id="LqMnQKDVY3w8fZrZsZry-4" style="edgeStyle=none;html=1;" parent="1" source="LqMnQKDVY3w8fZrZsZry-5" edge="1">
                    <mxGeometry relative="1" as="geometry">
                        <mxPoint x="480" y="385" as="targetPoint"/>
                    </mxGeometry>
                </mxCell>
                <mxCell id="LqMnQKDVY3w8fZrZsZry-5" value="Commit 1" style="ellipse;whiteSpace=wrap;html=1;aspect=fixed;" parent="1" vertex="1">
                    <mxGeometry x="170" y="345" width="80" height="80" as="geometry"/>
                </mxCell>
                <mxCell id="LqMnQKDVY3w8fZrZsZry-6" value="" style="edgeStyle=none;html=1;" parent="1" source="LqMnQKDVY3w8fZrZsZry-7" target="LqMnQKDVY3w8fZrZsZry-9" edge="1">
                    <mxGeometry relative="1" as="geometry"/>
                </mxCell>
                <mxCell id="LqMnQKDVY3w8fZrZsZry-7" value="&lt;div&gt;Filmes-&lt;/div&gt;Commit 1" style="ellipse;whiteSpace=wrap;html=1;aspect=fixed;" parent="1" vertex="1">
                    <mxGeometry x="170" y="505" width="80" height="80" as="geometry"/>
                </mxCell>
                <mxCell id="LqMnQKDVY3w8fZrZsZry-8" value="" style="edgeStyle=none;html=1;" parent="1" source="LqMnQKDVY3w8fZrZsZry-9" target="LqMnQKDVY3w8fZrZsZry-11" edge="1">
                    <mxGeometry relative="1" as="geometry"/>
                </mxCell>
                <mxCell id="LqMnQKDVY3w8fZrZsZry-9" value="Criando a&amp;nbsp;&lt;div&gt;classes filmes&lt;/div&gt;" style="ellipse;whiteSpace=wrap;html=1;" parent="1" vertex="1">
                    <mxGeometry x="330" y="505" width="80" height="80" as="geometry"/>
                </mxCell>
                <mxCell id="LqMnQKDVY3w8fZrZsZry-10" value="" style="edgeStyle=none;html=1;" parent="1" source="LqMnQKDVY3w8fZrZsZry-11" target="LqMnQKDVY3w8fZrZsZry-12" edge="1">
                    <mxGeometry relative="1" as="geometry"/>
                </mxCell>
                <mxCell id="LqMnQKDVY3w8fZrZsZry-11" value="finalizando a classe filmes" style="ellipse;whiteSpace=wrap;html=1;" parent="1" vertex="1">
                    <mxGeometry x="490" y="505" width="80" height="80" as="geometry"/>
                </mxCell>
                <mxCell id="LqMnQKDVY3w8fZrZsZry-12" value="Mesclagem filmes" style="ellipse;whiteSpace=wrap;html=1;" parent="1" vertex="1">
                    <mxGeometry x="490" y="345" width="80" height="80" as="geometry"/>
                </mxCell>
            </root>
        </mxGraphModel>
    </diagram>
    <diagram id="fL0h6eSxkkCtA8NMMwpN" name="Página-3">
        <mxGraphModel dx="1086" dy="795" grid="1" gridSize="10" guides="1" tooltips="1" connect="1" arrows="1" fold="1" page="1" pageScale="1" pageWidth="827" pageHeight="1169" math="0" shadow="0">
            <root>
                <mxCell id="0"/>
                <mxCell id="1" parent="0"/>
                <mxCell id="ci-8ZE9mHVQOL_1TG-sX-1" style="edgeStyle=none;html=1;entryX=0;entryY=0.5;entryDx=0;entryDy=0;" parent="1" source="ci-8ZE9mHVQOL_1TG-sX-2" target="ci-8ZE9mHVQOL_1TG-sX-5" edge="1">
                    <mxGeometry relative="1" as="geometry"/>
                </mxCell>
                <mxCell id="ci-8ZE9mHVQOL_1TG-sX-2" value="Main" style="ellipse;whiteSpace=wrap;html=1;aspect=fixed;" parent="1" vertex="1">
                    <mxGeometry x="50" y="345" width="80" height="80" as="geometry"/>
                </mxCell>
                <mxCell id="ci-8ZE9mHVQOL_1TG-sX-3" value="" style="edgeStyle=none;html=1;" parent="1" source="ci-8ZE9mHVQOL_1TG-sX-5" target="ci-8ZE9mHVQOL_1TG-sX-7" edge="1">
                    <mxGeometry relative="1" as="geometry"/>
                </mxCell>
                <mxCell id="ci-8ZE9mHVQOL_1TG-sX-4" style="edgeStyle=none;html=1;" parent="1" source="ci-8ZE9mHVQOL_1TG-sX-5" edge="1">
                    <mxGeometry relative="1" as="geometry">
                        <mxPoint x="480" y="385" as="targetPoint"/>
                    </mxGeometry>
                </mxCell>
                <mxCell id="ci-8ZE9mHVQOL_1TG-sX-5" value="Commit 1" style="ellipse;whiteSpace=wrap;html=1;aspect=fixed;" parent="1" vertex="1">
                    <mxGeometry x="170" y="345" width="80" height="80" as="geometry"/>
                </mxCell>
                <mxCell id="ci-8ZE9mHVQOL_1TG-sX-6" value="" style="edgeStyle=none;html=1;" parent="1" source="ci-8ZE9mHVQOL_1TG-sX-7" target="ci-8ZE9mHVQOL_1TG-sX-9" edge="1">
                    <mxGeometry relative="1" as="geometry"/>
                </mxCell>
                <mxCell id="ci-8ZE9mHVQOL_1TG-sX-7" value="&lt;div&gt;Filmes&lt;/div&gt;Commit 1" style="ellipse;whiteSpace=wrap;html=1;aspect=fixed;" parent="1" vertex="1">
                    <mxGeometry x="170" y="505" width="80" height="80" as="geometry"/>
                </mxCell>
                <mxCell id="ci-8ZE9mHVQOL_1TG-sX-8" value="" style="edgeStyle=none;html=1;" parent="1" source="ci-8ZE9mHVQOL_1TG-sX-9" target="ci-8ZE9mHVQOL_1TG-sX-11" edge="1">
                    <mxGeometry relative="1" as="geometry"/>
                </mxCell>
                <mxCell id="ci-8ZE9mHVQOL_1TG-sX-9" value="Criando a&amp;nbsp;&lt;div&gt;classes filmes&lt;/div&gt;" style="ellipse;whiteSpace=wrap;html=1;" parent="1" vertex="1">
                    <mxGeometry x="330" y="505" width="80" height="80" as="geometry"/>
                </mxCell>
                <mxCell id="ci-8ZE9mHVQOL_1TG-sX-10" value="" style="edgeStyle=none;html=1;" parent="1" source="ci-8ZE9mHVQOL_1TG-sX-11" target="ci-8ZE9mHVQOL_1TG-sX-12" edge="1">
                    <mxGeometry relative="1" as="geometry"/>
                </mxCell>
                <mxCell id="ci-8ZE9mHVQOL_1TG-sX-11" value="finalizando a classe filmes" style="ellipse;whiteSpace=wrap;html=1;" parent="1" vertex="1">
                    <mxGeometry x="490" y="505" width="80" height="80" as="geometry"/>
                </mxCell>
                <mxCell id="ci-8ZE9mHVQOL_1TG-sX-14" value="" style="edgeStyle=none;html=1;" parent="1" source="ci-8ZE9mHVQOL_1TG-sX-12" target="ci-8ZE9mHVQOL_1TG-sX-13" edge="1">
                    <mxGeometry relative="1" as="geometry"/>
                </mxCell>
                <mxCell id="ci-8ZE9mHVQOL_1TG-sX-19" value="" style="edgeStyle=none;html=1;" parent="1" source="ci-8ZE9mHVQOL_1TG-sX-12" target="ci-8ZE9mHVQOL_1TG-sX-17" edge="1">
                    <mxGeometry relative="1" as="geometry"/>
                </mxCell>
                <mxCell id="ci-8ZE9mHVQOL_1TG-sX-12" value="Mesclagem filmes" style="ellipse;whiteSpace=wrap;html=1;" parent="1" vertex="1">
                    <mxGeometry x="490" y="345" width="80" height="80" as="geometry"/>
                </mxCell>
                <mxCell id="ci-8ZE9mHVQOL_1TG-sX-16" value="" style="edgeStyle=none;html=1;" parent="1" source="ci-8ZE9mHVQOL_1TG-sX-13" target="ci-8ZE9mHVQOL_1TG-sX-15" edge="1">
                    <mxGeometry relative="1" as="geometry"/>
                </mxCell>
                <mxCell id="ci-8ZE9mHVQOL_1TG-sX-13" value="Catalogo" style="ellipse;whiteSpace=wrap;html=1;" parent="1" vertex="1">
                    <mxGeometry x="490" y="185" width="80" height="80" as="geometry"/>
                </mxCell>
                <mxCell id="ci-8ZE9mHVQOL_1TG-sX-18" value="" style="edgeStyle=none;html=1;" parent="1" source="ci-8ZE9mHVQOL_1TG-sX-15" target="ci-8ZE9mHVQOL_1TG-sX-17" edge="1">
                    <mxGeometry relative="1" as="geometry"/>
                </mxCell>
                <mxCell id="ci-8ZE9mHVQOL_1TG-sX-15" value="Classe catalogo" style="ellipse;whiteSpace=wrap;html=1;" parent="1" vertex="1">
                    <mxGeometry x="650" y="185" width="80" height="80" as="geometry"/>
                </mxCell>
                <mxCell id="ci-8ZE9mHVQOL_1TG-sX-17" value="Mesclagem&amp;nbsp;&lt;div&gt;catalogo&lt;/div&gt;" style="ellipse;whiteSpace=wrap;html=1;" parent="1" vertex="1">
                    <mxGeometry x="650" y="345" width="80" height="80" as="geometry"/>
                </mxCell>
            </root>
        </mxGraphModel>
    </diagram>
    <diagram id="dp8Pgr3_i7Q248cpwewM" name="Página-4">
        <mxGraphModel dx="1086" dy="795" grid="1" gridSize="10" guides="1" tooltips="1" connect="1" arrows="1" fold="1" page="1" pageScale="1" pageWidth="827" pageHeight="1169" math="0" shadow="0">
            <root>
                <mxCell id="0"/>
                <mxCell id="1" parent="0"/>
                <mxCell id="XllFgl8DcfFVLa9OXkRQ-1" style="edgeStyle=none;html=1;entryX=0;entryY=0.5;entryDx=0;entryDy=0;" parent="1" source="XllFgl8DcfFVLa9OXkRQ-2" target="XllFgl8DcfFVLa9OXkRQ-5" edge="1">
                    <mxGeometry relative="1" as="geometry"/>
                </mxCell>
                <mxCell id="XllFgl8DcfFVLa9OXkRQ-2" value="Main" style="ellipse;whiteSpace=wrap;html=1;aspect=fixed;" parent="1" vertex="1">
                    <mxGeometry x="50" y="345" width="80" height="80" as="geometry"/>
                </mxCell>
                <mxCell id="XllFgl8DcfFVLa9OXkRQ-4" style="edgeStyle=none;html=1;" parent="1" source="XllFgl8DcfFVLa9OXkRQ-5" edge="1">
                    <mxGeometry relative="1" as="geometry">
                        <mxPoint x="480" y="385" as="targetPoint"/>
                    </mxGeometry>
                </mxCell>
                <mxCell id="XllFgl8DcfFVLa9OXkRQ-5" value="Commit 1" style="ellipse;whiteSpace=wrap;html=1;aspect=fixed;" parent="1" vertex="1">
                    <mxGeometry x="170" y="345" width="80" height="80" as="geometry"/>
                </mxCell>
                <mxCell id="XllFgl8DcfFVLa9OXkRQ-13" value="" style="edgeStyle=none;html=1;" parent="1" source="XllFgl8DcfFVLa9OXkRQ-14" target="XllFgl8DcfFVLa9OXkRQ-19" edge="1">
                    <mxGeometry relative="1" as="geometry"/>
                </mxCell>
                <mxCell id="XllFgl8DcfFVLa9OXkRQ-14" value="Mesclagem filmes" style="ellipse;whiteSpace=wrap;html=1;" parent="1" vertex="1">
                    <mxGeometry x="490" y="345" width="80" height="80" as="geometry"/>
                </mxCell>
                <mxCell id="XllFgl8DcfFVLa9OXkRQ-19" value="Mesclagem&amp;nbsp;&lt;div&gt;catalogo&lt;/div&gt;" style="ellipse;whiteSpace=wrap;html=1;" parent="1" vertex="1">
                    <mxGeometry x="650" y="345" width="80" height="80" as="geometry"/>
                </mxCell>
            </root>
        </mxGraphModel>
    </diagram>
</mxfile>